# xmcd CD database file
#
# Track frame offsets:
#	150
#	55913
#	82627
#	102684
#	146462
#	169539
#	204603
#	242366
#	259564
#	294851
#	322691
#
# Disc length: 4360 seconds
#
# Revision: 0
# Processed by: cddbd v1.5.1PL2 Copyright (c) Steve Scherf et al.
# Submitted via: CDex 1.51
#
DISCID=8511060b
DTITLE=Art Famer - "Live at the half-note" and " Meets Mulligan and Hall"
DYEAR=1900
DGENRE=Jazz
TTITLE0=1.Stompin'at the savoy
TTITLE1=2. Swing spring
TTITLE2=3. What's new
TTITLE3=4. I want to be happy
TTITLE4=5. I'm gettin' sentimental over you
TTITLE5=1. News from blueport
TTITLE6=2. Moonlight in vermont
TTITLE7=3. Spring is sprung
TTITLE8=4. Sometime ago
TTITLE9=5. Bilbao song
TTITLE10=6. Theme
EXTD=
EXTT0=
EXTT1=
EXTT2=
EXTT3=
EXTT4=
EXTT5=
EXTT6=
EXTT7=
EXTT8=
EXTT9=
EXTT10=
PLAYORDER=
